# xmcd
#
# Track frame offsets:
#	150
#	14049
#	32152
#	46581
#	61547
#	74112
#	91826
#	105592
#	115540
#	128276
#
# Disc length: 1883 seconds
#
# Revision: 1
# Processed by: cddbd v1.5.2PL0 Copyright (c) Steve Scherf et al.
# Submitted via: audiograbber 1.83.01
#
DISCID=7407590a
DTITLE=NONATO ROSSI - UGA UGA DO BREGA
DYEAR=1900
DGENRE=
TTITLE0=TUDO BEM GALERA
TTITLE1=AMOR NO QUARTO
TTITLE2=FALSO AMOR
TTITLE3=INTERNALTA
TTITLE4=PAPO DE TELEFONE
TTITLE5=ME ENGANA QUE EU GOSTO
TTITLE6=SÃO FRANCISCO
TTITLE7=FIM DE SEMANA
TTITLE8=GARIMPO
TTITLE9=CODO
EXTD=
EXTT0=
EXTT1=
EXTT2=
EXTT3=
EXTT4=
EXTT5=
EXTT6=
EXTT7=
EXTT8=
EXTT9=
PLAYORDER=
